<mxfile host="app.diagrams.net" modified="2023-11-19T15:04:16.789Z" agent="Mozilla/5.0 (Windows NT 10.0; Win64; x64) AppleWebKit/537.36 (KHTML, like Gecko) Chrome/119.0.0.0 Safari/537.36 Edg/119.0.0.0" version="22.1.3" etag="WliKP6QJM6JBT7zt4-Ie" type="device">
  <diagram id="Hx-au-u8GBKNVg3ZCdL6" name="第 1 页">
    <mxGraphModel dx="1468" dy="993" grid="1" gridSize="10" guides="1" tooltips="1" connect="1" arrows="1" fold="1" page="1" pageScale="1" pageWidth="1100" pageHeight="850" math="0" shadow="0">
      <root>
        <mxCell id="0" />
        <mxCell id="1" parent="0" />
        <mxCell id="fuohCcbiHaW9kWNp-K2C-1" value="顾客" style="shape=umlLifeline;perimeter=lifelinePerimeter;whiteSpace=wrap;html=1;container=1;dropTarget=0;collapsible=0;recursiveResize=0;outlineConnect=0;portConstraint=eastwest;newEdgeStyle={&quot;curved&quot;:0,&quot;rounded&quot;:0};" vertex="1" parent="1">
          <mxGeometry x="230" y="180" width="100" height="300" as="geometry" />
        </mxCell>
        <mxCell id="fuohCcbiHaW9kWNp-K2C-4" value="" style="html=1;points=[[0,0,0,0,5],[0,1,0,0,-5],[1,0,0,0,5],[1,1,0,0,-5]];perimeter=orthogonalPerimeter;outlineConnect=0;targetShapes=umlLifeline;portConstraint=eastwest;newEdgeStyle={&quot;curved&quot;:0,&quot;rounded&quot;:0};" vertex="1" parent="fuohCcbiHaW9kWNp-K2C-1">
          <mxGeometry x="45" y="120" width="10" height="80" as="geometry" />
        </mxCell>
        <mxCell id="fuohCcbiHaW9kWNp-K2C-3" value="系统" style="shape=umlLifeline;perimeter=lifelinePerimeter;whiteSpace=wrap;html=1;container=1;dropTarget=0;collapsible=0;recursiveResize=0;outlineConnect=0;portConstraint=eastwest;newEdgeStyle={&quot;curved&quot;:0,&quot;rounded&quot;:0};" vertex="1" parent="1">
          <mxGeometry x="430" y="180" width="100" height="300" as="geometry" />
        </mxCell>
        <mxCell id="fuohCcbiHaW9kWNp-K2C-5" value="" style="html=1;points=[[0,0,0,0,5],[0,1,0,0,-5],[1,0,0,0,5],[1,1,0,0,-5]];perimeter=orthogonalPerimeter;outlineConnect=0;targetShapes=umlLifeline;portConstraint=eastwest;newEdgeStyle={&quot;curved&quot;:0,&quot;rounded&quot;:0};" vertex="1" parent="fuohCcbiHaW9kWNp-K2C-3">
          <mxGeometry x="45" y="120" width="10" height="80" as="geometry" />
        </mxCell>
        <mxCell id="fuohCcbiHaW9kWNp-K2C-6" value="修改信息（）" style="html=1;verticalAlign=bottom;endArrow=block;curved=0;rounded=0;entryX=0;entryY=0;entryDx=0;entryDy=5;" edge="1" target="fuohCcbiHaW9kWNp-K2C-5" parent="1" source="fuohCcbiHaW9kWNp-K2C-1">
          <mxGeometry relative="1" as="geometry">
            <mxPoint x="405" y="305" as="sourcePoint" />
          </mxGeometry>
        </mxCell>
        <mxCell id="fuohCcbiHaW9kWNp-K2C-7" value="返回保存修改信息（）" style="html=1;verticalAlign=bottom;endArrow=open;dashed=1;endSize=8;curved=0;rounded=0;exitX=0;exitY=1;exitDx=0;exitDy=-5;" edge="1" source="fuohCcbiHaW9kWNp-K2C-5" parent="1" target="fuohCcbiHaW9kWNp-K2C-1">
          <mxGeometry relative="1" as="geometry">
            <mxPoint x="405" y="375" as="targetPoint" />
          </mxGeometry>
        </mxCell>
        <mxCell id="fuohCcbiHaW9kWNp-K2C-8" value="修改信息" style="text;html=1;strokeColor=none;fillColor=none;align=center;verticalAlign=middle;whiteSpace=wrap;rounded=0;" vertex="1" parent="1">
          <mxGeometry x="160" y="140" width="60" height="30" as="geometry" />
        </mxCell>
      </root>
    </mxGraphModel>
  </diagram>
</mxfile>
